<svg width="988" height="444" viewBox="0 0 988 444" fill="none" xmlns="http://www.w3.org/2000/svg">
<rect width="988" height="444" fill="#FCFCFC"/>
<g clip-path="url(#clip0_45011_29612)">
<rect x="31" width="588" height="444" rx="12" fill="#F3F4F6"/>
<rect x="230" y="137" width="191" height="191" rx="39" fill="white"/>
<rect x="-37" y="137" width="191" height="191" rx="39" fill="white"/>
<path d="M237.212 158C237.876 166.789 248.847 173.78 262.282 173.78C275.25 173.78 285.921 167.266 287.244 158.909L329.344 167.016C332.046 167.536 334 169.902 334 172.654V203.872C334 207.517 330.647 210.24 327.079 209.491L314.516 206.854C310.948 206.105 307.595 208.827 307.595 212.473V300.205C307.595 303.448 304.911 306.047 301.67 305.943L207.442 302.936C204.128 302.83 201.591 299.945 201.91 296.645L210.39 208.854C210.75 205.122 207.495 202.052 203.791 202.629L192.626 204.369C189.145 204.912 186 202.219 186 198.696V166.475C186 163.437 188.366 160.925 191.398 160.743L237.212 158Z" fill="#4DC380"/>
<path d="M253.4 224.367C253.959 226.764 252.008 229.268 249.898 229.76C247.789 230.253 245.017 228.85 244.458 226.453C243.899 224.056 245.512 220.862 247.622 220.37C250.435 219.713 252.84 221.969 253.4 224.367Z" fill="#37B36B"/>
<path d="M264.164 224.458C263.352 226.782 265.025 229.48 267.071 230.194C269.116 230.908 272.02 229.809 272.832 227.485C273.643 225.161 272.379 221.813 270.334 221.099C267.607 220.147 264.975 222.134 264.164 224.458Z" fill="#37B36B"/>
<path d="M274.266 238.108C273.891 245.132 266.893 247.376 257.537 246.876C248.18 246.377 241.616 243.408 241.991 236.384C242.427 228.214 247.919 221.966 258.836 222.549C269.752 223.132 274.736 229.321 274.266 238.108Z" fill="#37B36B"/>
<path d="M255.996 235.021C255.888 237.059 254.508 239.227 252.746 239.133C250.984 239.039 248.227 237.226 248.389 234.183C248.542 231.323 251.671 230.471 254.82 231.163C256.75 231.587 256.105 232.984 255.996 235.021Z" fill="#269E58"/>
<path d="M252.717 234.542C252.696 234.941 252.799 235.271 253.401 235.303C254.004 235.335 254.141 235.018 254.163 234.619C254.184 234.22 253.96 233.883 253.479 233.858C252.997 233.832 252.739 234.143 252.717 234.542Z" fill="white"/>
<path d="M260.488 235.261C260.379 237.299 261.52 239.601 263.282 239.695C265.044 239.789 267.978 238.281 268.141 235.237C268.294 232.378 265.273 231.197 262.069 231.55C260.104 231.766 260.596 233.223 260.488 235.261Z" fill="#269E58"/>
<path d="M263.799 235.133C263.778 235.532 263.64 235.849 263.038 235.817C262.436 235.785 262.333 235.455 262.354 235.056C262.375 234.657 262.633 234.346 263.115 234.372C263.597 234.398 263.82 234.734 263.799 235.133Z" fill="white"/>
<path d="M422 137.949C421.721 129.213 414.199 122.275 404.726 122.275C401.662 122.275 396.925 124.331 394.975 127.671C394.697 128.442 393.582 128.442 393.303 127.671C391.075 124.588 386.617 122.532 383.274 122.532C374.08 122.532 366.279 129.47 366 137.949V138.463C366 142.831 367.95 146.942 371.294 150.025C371.572 150.282 384.945 161.331 391.075 166.213C392.746 167.498 395.254 167.498 396.925 166.213C403.055 161.331 416.149 150.539 416.706 150.282C416.706 150.282 416.706 150.282 416.706 150.025C420.05 147.199 422 143.088 422 138.463V137.949Z" fill="url(#paint0_linear_45011_29612)"/>
<path d="M371.984 91.0006C370.135 86.7006 365.027 84.7216 360.305 86.5845C358.777 87.1871 356.818 89.1432 356.5 91.1919C356.512 91.6309 355.957 91.8501 355.667 91.5206C353.952 90.4219 351.328 90.2739 349.661 90.9313C345.078 92.7394 342.547 97.7318 344.068 102.013L344.169 102.269C345.024 104.447 346.801 106.113 349.071 106.992C349.261 107.066 358.09 109.943 362.101 111.172C363.186 111.483 364.436 110.99 365.018 110.021C367.117 106.382 371.532 98.4273 371.76 98.1897C371.76 98.1897 371.76 98.1897 371.709 98.0616C372.822 95.9952 372.99 93.5623 372.084 91.2568L371.984 91.0006Z" fill="url(#paint1_linear_45011_29612)"/>
<path d="M418.813 92.9101C420.729 88.6397 418.737 83.527 414.178 81.2936C412.703 80.571 409.941 80.4436 408.218 81.5914C407.903 81.8967 407.367 81.634 407.414 81.1973C407.065 79.1877 405.402 77.1474 403.793 76.3591C399.367 74.1913 393.984 75.691 391.86 79.7063L391.74 79.9536C390.714 82.0559 390.688 84.4944 391.573 86.7667C391.647 86.9561 395.49 95.4269 397.294 99.2218C397.797 100.234 399.004 100.825 400.11 100.601C404.206 99.6968 413.042 97.5902 413.37 97.5979C413.37 97.5979 413.37 97.5979 413.43 97.4743C415.703 96.9022 417.607 95.3834 418.692 93.1574L418.813 92.9101Z" fill="url(#paint2_linear_45011_29612)"/>
<rect x="497" y="137" width="191" height="191" rx="39" fill="white"/>
<path d="M237.212 158C237.876 166.789 248.847 173.78 262.282 173.78C275.25 173.78 285.921 167.266 287.244 158.909L329.344 167.016C332.046 167.536 334 169.902 334 172.654V203.872C334 207.517 330.647 210.24 327.079 209.491L314.516 206.854C310.948 206.105 307.595 208.827 307.595 212.473V300.205C307.595 303.448 304.911 306.047 301.67 305.943L207.442 302.936C204.128 302.83 201.591 299.945 201.91 296.645L210.39 208.854C210.75 205.122 207.495 202.052 203.791 202.629L192.626 204.369C189.145 204.912 186 202.219 186 198.696V166.475C186 163.437 188.366 160.925 191.398 160.743L237.212 158Z" fill="#4DC380"/>
<path d="M253.4 224.367C253.959 226.764 252.008 229.268 249.898 229.76C247.789 230.253 245.017 228.85 244.458 226.453C243.899 224.056 245.512 220.862 247.622 220.37C250.435 219.713 252.84 221.969 253.4 224.367Z" fill="#37B36B"/>
<path d="M264.164 224.458C263.352 226.782 265.025 229.48 267.071 230.194C269.116 230.908 272.02 229.809 272.832 227.485C273.643 225.161 272.379 221.813 270.334 221.099C267.607 220.147 264.975 222.134 264.164 224.458Z" fill="#37B36B"/>
<path d="M274.266 238.108C273.891 245.132 266.893 247.376 257.537 246.876C248.18 246.377 241.616 243.408 241.991 236.384C242.427 228.214 247.919 221.966 258.836 222.549C269.752 223.132 274.736 229.321 274.266 238.108Z" fill="#37B36B"/>
<path d="M255.996 235.021C255.888 237.059 254.508 239.227 252.746 239.133C250.984 239.039 248.227 237.226 248.389 234.183C248.542 231.323 251.671 230.471 254.82 231.163C256.75 231.587 256.105 232.984 255.996 235.021Z" fill="#269E58"/>
<path d="M252.717 234.542C252.696 234.941 252.799 235.271 253.401 235.303C254.004 235.335 254.141 235.018 254.163 234.619C254.184 234.22 253.96 233.883 253.479 233.858C252.997 233.832 252.739 234.143 252.717 234.542Z" fill="white"/>
<path d="M260.488 235.261C260.379 237.299 261.52 239.601 263.282 239.695C265.044 239.789 267.978 238.281 268.141 235.237C268.294 232.378 265.273 231.197 262.069 231.55C260.104 231.766 260.596 233.223 260.488 235.261Z" fill="#269E58"/>
<path d="M263.799 235.133C263.778 235.532 263.64 235.849 263.038 235.817C262.436 235.785 262.333 235.455 262.354 235.056C262.375 234.657 262.633 234.346 263.115 234.372C263.597 234.398 263.82 234.734 263.799 235.133Z" fill="white"/>
<path d="M422 137.949C421.721 129.213 414.199 122.275 404.726 122.275C401.662 122.275 396.925 124.331 394.975 127.671C394.697 128.442 393.582 128.442 393.303 127.671C391.075 124.588 386.617 122.532 383.274 122.532C374.08 122.532 366.279 129.47 366 137.949V138.463C366 142.831 367.95 146.942 371.294 150.025C371.572 150.282 384.945 161.331 391.075 166.213C392.746 167.498 395.254 167.498 396.925 166.213C403.055 161.331 416.149 150.539 416.706 150.282C416.706 150.282 416.706 150.282 416.706 150.025C420.05 147.199 422 143.088 422 138.463V137.949Z" fill="url(#paint3_linear_45011_29612)"/>
<path d="M371.984 91.0004C370.135 86.7003 365.027 84.7214 360.305 86.5842C358.777 87.1869 356.818 89.143 356.5 91.1916C356.512 91.6307 355.957 91.8498 355.667 91.5203C353.952 90.4217 351.328 90.2736 349.661 90.9311C345.078 92.7391 342.547 97.7315 344.068 102.013L344.169 102.269C345.024 104.447 346.801 106.112 349.071 106.992C349.261 107.065 358.09 109.943 362.101 111.171C363.186 111.483 364.436 110.99 365.018 110.021C367.117 106.382 371.532 98.4271 371.76 98.1894C371.76 98.1894 371.76 98.1894 371.709 98.0613C372.822 95.9949 372.99 93.5621 372.084 91.2566L371.984 91.0004Z" fill="url(#paint4_linear_45011_29612)"/>
<path d="M418.813 92.9101C420.729 88.6397 418.737 83.527 414.178 81.2936C412.703 80.571 409.941 80.4436 408.218 81.5914C407.903 81.8967 407.367 81.634 407.414 81.1973C407.065 79.1877 405.402 77.1474 403.793 76.3591C399.367 74.1913 393.984 75.691 391.86 79.7063L391.74 79.9536C390.714 82.0559 390.688 84.4944 391.573 86.7667C391.647 86.9561 395.49 95.4269 397.294 99.2218C397.797 100.234 399.004 100.825 400.11 100.601C404.206 99.6968 413.042 97.5902 413.37 97.5979C413.37 97.5979 413.37 97.5979 413.43 97.4743C415.703 96.9022 417.607 95.3834 418.692 93.1574L418.813 92.9101Z" fill="url(#paint5_linear_45011_29612)"/>
<path d="M190.664 346.402C194.976 361.252 183.575 377.615 170.507 381.409C157.44 385.203 139.586 377.334 135.275 362.484C130.963 347.634 140.014 327.059 153.082 323.265C170.507 318.205 186.353 331.552 190.664 346.402Z" fill="#222327"/>
<path d="M197.848 346.402C193.536 361.252 204.936 377.615 218.004 381.409C231.072 385.203 248.925 377.334 253.237 362.484C257.549 347.634 248.497 327.059 235.429 323.265C218.004 318.205 202.159 331.552 197.848 346.402Z" fill="#222327"/>
<path d="M289 460.385C289 500.2 248.622 515 193.543 515C138.465 515 99 500.2 99 460.385C99 414.071 138.465 373 193.543 373C248.622 373 289 410.575 289 460.385Z" fill="white"/>
<path d="M193.914 344.144C261.442 344.144 310.947 392.301 310.947 456.138C310.947 507.166 261.442 526.134 193.914 526.134C126.386 526.134 78.0001 507.166 78 456.138C78 396.781 126.386 344.144 193.914 344.144ZM191.262 373.262C141.59 373.262 105.999 411.809 105.999 455.277C105.999 492.645 141.59 506.535 191.262 506.535C240.934 506.535 277.349 492.645 277.35 455.277C277.35 408.529 240.934 373.262 191.262 373.262Z" fill="white"/>
<path d="M438.664 346.402C442.976 361.252 431.575 377.615 418.507 381.409C405.44 385.203 387.586 377.334 383.275 362.484C378.963 347.634 388.014 327.059 401.082 323.265C418.507 318.205 434.353 331.552 438.664 346.402Z" fill="#222327"/>
<path d="M445.848 346.402C441.536 361.252 452.936 377.615 466.004 381.409C479.072 385.203 496.925 377.334 501.237 362.484C505.549 347.634 496.497 327.059 483.429 323.265C466.004 318.205 450.159 331.552 445.848 346.402Z" fill="#222327"/>
<path d="M537 460.385C537 500.2 496.622 515 441.543 515C386.465 515 347 500.2 347 460.385C347 414.071 386.465 373 441.543 373C496.622 373 537 410.575 537 460.385Z" fill="white"/>
<path d="M441.914 344.144C509.442 344.144 558.947 392.301 558.947 456.138C558.947 507.166 509.442 526.134 441.914 526.134C374.386 526.134 326 507.166 326 456.138C326 396.781 374.386 344.144 441.914 344.144ZM439.262 373.262C389.59 373.262 353.999 411.809 353.999 455.277C353.999 492.645 389.59 506.535 439.262 506.535C488.934 506.535 525.349 492.645 525.35 455.277C525.35 408.529 488.934 373.262 439.262 373.262Z" fill="white"/>
</g>
<path d="M684.072 122V109.273H686.709V114.547H692.229V109.273H694.883V122H692.229V116.727H686.709V122H684.072ZM701.264 122.193C698.381 122.193 696.588 120.207 696.588 117.254C696.588 114.301 698.381 112.332 701.264 112.332C704.146 112.332 705.957 114.301 705.957 117.254C705.957 120.207 704.146 122.193 701.264 122.193ZM701.281 120.172C702.617 120.172 703.303 118.924 703.303 117.254C703.303 115.566 702.617 114.318 701.281 114.318C699.928 114.318 699.225 115.566 699.225 117.254C699.225 118.924 699.928 120.172 701.281 120.172ZM712.619 112.455V114.406H710.826V119.064C710.826 119.82 711.195 120.014 711.723 120.031C711.986 120.031 712.443 120.014 712.76 119.979V122.035C712.479 122.088 712.021 122.123 711.371 122.123C709.49 122.123 708.207 121.279 708.225 119.434V114.406H706.906V112.455H708.225V110.17H710.826V112.455H712.619ZM718.402 122V112.455H721.004V122H718.402ZM719.703 111.207C718.912 111.207 718.279 110.609 718.279 109.889C718.279 109.15 718.912 108.553 719.703 108.553C720.477 108.553 721.109 109.15 721.109 109.889C721.109 110.609 720.477 111.207 719.703 111.207ZM728.053 112.455V114.406H726.26V119.064C726.26 119.82 726.629 120.014 727.156 120.031C727.42 120.031 727.877 120.014 728.193 119.979V122.035C727.912 122.088 727.455 122.123 726.805 122.123C724.924 122.123 723.641 121.279 723.658 119.434V114.406H722.34V112.455H723.658V110.17H726.26V112.455H728.053ZM733.906 122.193C730.988 122.193 729.195 120.295 729.195 117.271C729.195 114.318 731.006 112.332 733.801 112.332C736.314 112.332 738.283 113.914 738.283 117.166V117.904H731.762C731.762 119.346 732.623 120.242 733.959 120.242C734.838 120.242 735.471 119.855 735.734 119.275H738.213C737.844 121.033 736.262 122.193 733.906 122.193ZM731.762 116.27H735.822C735.822 115.109 735.014 114.283 733.854 114.283C732.658 114.283 731.806 115.171 731.762 116.27ZM739.918 122V112.455H742.396V114.125H742.502C742.906 113.018 743.873 112.332 745.156 112.332C746.475 112.332 747.441 113.018 747.758 114.125H747.846C748.25 113.035 749.322 112.332 750.729 112.332C752.504 112.332 753.734 113.51 753.734 115.584V122H751.133V116.094C751.133 115.004 750.5 114.477 749.639 114.477C748.654 114.477 748.092 115.162 748.092 116.164V122H745.561V116.023C745.561 115.074 744.963 114.477 744.084 114.477C743.205 114.477 742.52 115.18 742.52 116.27V122H739.918Z" fill="#3692FF"/>
<path d="M713.82 151.086V176.633H708.82V151.086H713.82ZM714.758 181.984V185.969H689.992V174.055H695.031V181.984H714.758ZM694.328 153.352C699.797 153.352 704.055 157.102 704.055 162.297C704.055 167.609 699.797 171.32 694.328 171.32C688.859 171.32 684.602 167.609 684.602 162.297C684.602 157.102 688.859 153.352 694.328 153.352ZM694.328 157.688C691.555 157.648 689.445 159.406 689.484 162.297C689.445 165.266 691.555 166.984 694.328 166.984C697.023 166.984 699.133 165.266 699.133 162.297C699.133 159.406 697.023 157.648 694.328 157.688ZM749.308 151.047V186.594H744.269V151.047H749.308ZM738.644 154.758C738.644 165.539 734.855 174.484 722.159 180.5L719.542 176.516C728.722 172.18 732.765 166.555 733.566 158.664H721.456V154.758H738.644ZM777.783 156.633C777.783 160.93 780.283 165.07 785.908 166.828L783.252 170.695C779.482 169.445 776.845 167.023 775.322 163.898C773.779 167.492 771.025 170.305 766.963 171.672L764.267 167.766C770.205 165.773 772.744 161.047 772.783 156.164V152.922H777.783V156.633ZM793.017 151.047V159.367H797.822V163.508H793.017V172.141H788.017V151.047H793.017ZM781.377 172.844C788.72 172.844 793.369 175.383 793.369 179.719C793.369 184.094 788.72 186.594 781.377 186.594C773.877 186.594 769.189 184.094 769.189 179.719C769.189 175.383 773.877 172.844 781.377 172.844ZM781.377 176.75C776.689 176.75 774.15 177.766 774.189 179.719C774.15 181.75 776.689 182.688 781.377 182.688C785.986 182.688 788.447 181.75 788.447 179.719C788.447 177.766 785.986 176.75 781.377 176.75ZM832.606 167.688V171.633H818.856V174.68H828.739V186.203H803.934V174.68H813.895V171.633H800.184V167.688H832.606ZM829.716 152.023V156.008H825.067V161.438H829.481V165.422H803.27V161.438H807.645V156.008H803.036V152.023H829.716ZM808.856 178.547V182.219H823.856V178.547H808.856ZM812.645 161.438H820.067V156.008H812.645V161.438ZM851.766 151.555C859.93 151.555 864.656 153.703 864.695 157.609C864.656 161.555 859.93 163.703 851.766 163.703C843.562 163.703 838.797 161.555 838.797 157.609C838.797 153.703 843.562 151.555 851.766 151.555ZM851.766 155.188C846.531 155.188 843.992 156.047 844.031 157.609C843.992 159.367 846.531 160.031 851.766 160.031C857.039 160.031 859.539 159.367 859.539 157.609C859.539 156.047 857.039 155.188 851.766 155.188ZM867.977 165.383V169.328H835.555V165.383H867.977ZM864.031 171.398V180.461H844.227V182.609H864.969V186.359H839.344V176.984H859.109V175.031H839.305V171.398H864.031ZM712.492 207.086V217.242H717.023V221.344H712.492V231.227H707.492V207.086H712.492ZM683.664 226.656C686.262 226.656 689.23 226.656 692.297 226.578V224.586C688.43 224.039 686.008 222.164 686.047 219.43C686.008 216.148 689.484 214.117 694.758 214.117C699.992 214.117 703.43 216.148 703.469 219.43C703.43 222.164 701.066 224.02 697.258 224.547V226.383C700.188 226.266 703.098 226.031 705.852 225.68L706.203 229.117C698.703 230.445 690.461 230.523 684.172 230.523L683.664 226.656ZM712.492 232.672V242.594H707.492V236.5H688.195V232.672H712.492ZM704.953 209.664V213.297H684.602V209.664H692.297V206.773H697.258V209.664H704.953ZM694.758 217.438C692.219 217.438 690.773 218.062 690.812 219.43C690.773 220.719 692.219 221.461 694.758 221.461C697.258 221.461 698.664 220.719 698.703 219.43C698.664 218.062 697.258 217.438 694.758 217.438ZM749.191 207.086V232.633H744.191V207.086H749.191ZM750.128 237.984V241.969H725.362V230.055H730.402V237.984H750.128ZM729.698 209.352C735.167 209.352 739.425 213.102 739.425 218.297C739.425 223.609 735.167 227.32 729.698 227.32C724.23 227.32 719.972 223.609 719.972 218.297C719.972 213.102 724.23 209.352 729.698 209.352ZM729.698 213.688C726.925 213.648 724.816 215.406 724.855 218.297C724.816 221.266 726.925 222.984 729.698 222.984C732.394 222.984 734.503 221.266 734.503 218.297C734.503 215.406 732.394 213.648 729.698 213.688ZM771.944 212.477V216.422H754.756V212.477H760.928V208.023H765.85V212.477H771.944ZM763.428 218.023C767.959 218.023 771.202 221.539 771.241 226.461C771.202 231.422 767.959 234.938 763.428 234.938C758.897 234.938 755.577 231.422 755.577 226.461C755.577 221.539 758.897 218.023 763.428 218.023ZM763.428 222.164C761.358 222.164 759.952 223.766 759.952 226.461C759.952 229.156 761.358 230.719 763.428 230.719C765.42 230.719 766.827 229.156 766.866 226.461C766.827 223.766 765.42 222.164 763.428 222.164ZM785.537 207.047V242.594H780.811V225.484H777.92V241.07H773.272V207.75H777.92V221.5H780.811V207.047H785.537ZM832.723 234.391V238.453H800.184V234.391H813.895V227.828H803.622V209.312H808.622V214.82H824.13V209.312H829.091V227.828H818.856V234.391H832.723ZM808.622 223.844H824.13V218.805H808.622V223.844ZM846.961 215.992C846.961 221.734 848.562 227.672 853.406 230.797L850.711 234.664C847.645 232.809 845.691 229.762 844.578 226.109C843.289 230.133 841.16 233.492 837.938 235.445L834.891 231.773C840.164 228.492 842.117 222.242 842.117 216.227V210.094H846.961V215.992ZM866.375 207.047V242.594H861.609V207.047H866.375ZM858.914 207.555V240.953H854.266V223.102H849.656V219.039H854.266V207.555H858.914ZM903.464 234.352V238.453H870.925V234.352H878.191V225.641C875.437 224 873.777 221.48 873.777 218.336C873.777 212.594 879.402 208.766 887.136 208.766C894.831 208.766 900.495 212.594 900.534 218.336C900.515 221.402 898.894 223.902 896.238 225.562V234.352H903.464ZM887.136 212.711C882.058 212.711 878.698 214.742 878.698 218.336C878.698 221.812 882.058 223.961 887.136 223.961C892.175 223.961 895.573 221.812 895.613 218.336C895.573 214.742 892.175 212.711 887.136 212.711ZM883.113 234.352H891.198V227.438C889.929 227.691 888.562 227.828 887.136 227.828C885.71 227.828 884.363 227.711 883.113 227.438V234.352Z" fill="#374151"/>
<path d="M700.133 282.992V291.359H703.391V293.211H700.133V303.969H697.906V282.992H700.133ZM694.648 285.195C694.625 291.266 691.953 296.68 685.039 300.102L683.797 298.367C689.059 295.742 691.918 291.945 692.375 287.047H684.852V285.195H694.648ZM711.852 286.859C711.852 289.531 713.703 291.969 716.891 292.977L715.836 294.711C713.445 293.949 711.699 292.367 710.773 290.375C709.859 292.672 708.02 294.488 705.5 295.367L704.352 293.586C707.633 292.508 709.602 289.789 709.625 286.883V286.297H705.008V284.492H716.375V286.297H711.852V286.859ZM721.016 282.992V288.195H724.062V290.023H721.016V295.602H718.789V282.992H721.016ZM714.242 296.117C718.578 296.117 721.203 297.547 721.203 300.008C721.203 302.492 718.578 303.969 714.242 303.945C709.859 303.969 707.188 302.492 707.188 300.008C707.188 297.547 709.859 296.117 714.242 296.117ZM714.242 297.875C711.195 297.875 709.391 298.648 709.414 300.008C709.391 301.414 711.195 302.188 714.242 302.188C717.266 302.188 719.023 301.414 719.023 300.008C719.023 298.648 717.266 297.875 714.242 297.875ZM732.078 302V285.031H734.656V292.391H743.094V285.031H745.672V302H743.094V294.594H734.656V302H732.078ZM763.883 293.516C763.883 298.93 760.625 302.234 756.242 302.234C751.812 302.234 748.578 298.93 748.578 293.516C748.578 288.078 751.812 284.797 756.242 284.797C760.625 284.797 763.883 288.078 763.883 293.516ZM761.328 293.516C761.328 289.391 759.148 287.164 756.242 287.164C753.312 287.164 751.133 289.391 751.133 293.516C751.133 297.641 753.312 299.867 756.242 299.867C759.148 299.867 761.328 297.641 761.328 293.516ZM765.219 287.258V285.031H778.367V287.258H773.094V302H770.516V287.258H765.219ZM796.531 283.016V289.766H799.578V291.617H796.531V298.719H794.305V283.016H796.531ZM792.57 285.453V287.258H780.055V285.453H785.211V282.992H787.438V285.453H792.57ZM786.312 288.266C789.336 288.266 791.398 289.836 791.398 292.227C791.398 294.617 789.336 296.164 786.312 296.164C783.266 296.164 781.203 294.617 781.203 292.227C781.203 289.836 783.266 288.266 786.312 288.266ZM786.312 289.977C784.531 289.977 783.336 290.844 783.359 292.227C783.336 293.586 784.531 294.43 786.312 294.43C788.094 294.43 789.289 293.586 789.312 292.227C789.289 290.844 788.094 289.977 786.312 289.977ZM797.422 301.742V303.547H783.219V297.477H785.445V301.742H797.422ZM825.781 292.719V294.523H817.297V296.539C821.152 296.75 823.438 298.051 823.438 300.242C823.438 302.633 820.719 303.969 816.195 303.945C811.625 303.969 808.906 302.633 808.906 300.242C808.906 298.051 811.191 296.75 815.094 296.539V294.523H806.633V292.719H825.781ZM816.195 298.227C812.984 298.227 811.156 298.953 811.156 300.242C811.156 301.508 812.984 302.258 816.195 302.234C819.359 302.258 821.211 301.508 821.211 300.242C821.211 298.953 819.359 298.227 816.195 298.227ZM824.07 283.953V285.734H817.695C818.012 287.762 820.965 289.484 824.797 289.859L824 291.617C820.367 291.195 817.355 289.66 816.219 287.422C815.047 289.66 812.047 291.195 808.414 291.617L807.641 289.859C811.414 289.484 814.379 287.762 814.695 285.734H808.391V283.953H824.07ZM844.367 285.008V287.07C844.367 289.672 844.367 292.578 843.57 296.867L841.32 296.633C842.141 292.578 842.141 289.602 842.141 287.07V286.812H829.391V285.008H844.367ZM846.523 299.305V301.156H827.375V299.305H834.664V291.898H836.867V299.305H846.523ZM865.602 282.992V303.992H863.398V293.141H858.688V291.312H863.398V282.992H865.602ZM858.758 285.242C858.734 291.336 856.367 296.562 849.242 300.102L848.07 298.344C853.637 295.625 856.109 291.84 856.508 287.023H849.008V285.242H858.758ZM877.438 285.195V292.789H871.672V297.219C873.957 297.207 876.113 297.102 878.633 296.703L878.82 298.484C875.891 299 873.57 299.07 870.945 299.094H869.516V290.961H875.281V287.023H869.492V285.195H877.438ZM886.883 282.992V303.992H884.75V292.977H882.031V302.914H879.992V283.414H882.031V291.172H884.75V282.992H886.883ZM914.609 291.688V293.469H906.125V295.297H912.195V300.219H899.961V302.07H912.781V303.781H897.781V298.602H909.992V297.008H897.758V295.297H903.898V293.469H895.461V291.688H914.609ZM912.148 283.672V290.141H897.922V283.672H912.148ZM900.102 285.43V288.383H909.922V285.43H900.102ZM935.352 293.047V294.828H926.867V297.078H933.008V303.734H918.5V297.078H924.664V294.828H916.203V293.047H935.352ZM933.547 283.648V285.453H930.5V289.461H933.453V291.266H918.055V289.461H921.031V285.453H917.961V283.648H933.547ZM920.703 298.836V301.93H930.852V298.836H920.703ZM923.234 289.461H928.273V285.453H923.234V289.461ZM946.508 283.344C951.242 283.344 954.008 284.609 954.008 286.953C954.008 289.297 951.242 290.586 946.508 290.586C941.773 290.586 939.008 289.297 939.008 286.953C939.008 284.609 941.773 283.344 946.508 283.344ZM946.508 284.984C943.156 284.984 941.305 285.711 941.328 286.953C941.305 288.242 943.156 288.922 946.508 288.922C949.859 288.922 951.711 288.242 951.711 286.953C951.711 285.711 949.859 284.984 946.508 284.984ZM956.094 291.875V293.656H936.945V291.875H956.094ZM953.68 295.273V300.195H941.445V302.07H954.266V303.781H939.266V298.578H951.477V296.938H939.242V295.273H953.68ZM695.703 316.891V318.695H693.711V325.281C694.707 325.199 695.68 325.105 696.617 325L696.758 326.664C692.516 327.344 687.641 327.438 684.031 327.438L683.773 325.609C684.582 325.609 685.449 325.598 686.352 325.586V318.695H684.359V316.891H695.703ZM700.273 315.016V321.227H703.32V323.102H700.273V330.461H698.047V315.016H700.273ZM701.164 333.742V335.547H686.961V328.984H689.188V333.742H701.164ZM688.508 325.516C689.504 325.504 690.512 325.469 691.531 325.398V318.695H688.508V325.516ZM720.875 314.992V323.125H724.25V324.953H720.875V336.039H718.648V314.992H720.875ZM715.227 317.008V318.812H707.633V328.961C711.16 328.949 713.809 328.797 716.797 328.258L717.078 330.133C713.797 330.719 711.008 330.836 707.094 330.812H705.406V317.008H715.227ZM741.734 317.078V330.719H731.914V317.078H741.734ZM734.094 318.836V328.914H739.531V318.836H734.094ZM747.477 314.992V323.219H750.852V325.094H747.477V335.992H745.25V314.992H747.477ZM769.836 315.016V329.195H767.727V315.016H769.836ZM765.617 315.367V327.32H763.508V322.844H759.828C758.586 325.223 756.406 327.18 753.031 328.633L751.953 327.016C754.859 325.797 756.734 324.215 757.836 322.328L752.328 322.914L752 321.086L758.562 320.711C758.797 320.008 758.949 319.27 759.031 318.508H752.961V316.703H761.188C761.188 318.25 761 319.703 760.578 321.039H763.508V315.367H765.617ZM763.789 328.586C763.789 331.234 766.953 333.578 770.914 334.164L770.047 335.898C766.801 335.359 764.012 333.766 762.711 331.516C761.387 333.766 758.598 335.359 755.352 335.898L754.461 334.164C758.422 333.578 761.586 331.234 761.586 328.586V327.977H763.789V328.586ZM790.672 314.992V335.992H788.539V314.992H790.672ZM786.406 315.391V334.961H784.273V324.836H781.906C781.719 328.938 779.961 331.492 777.359 331.469C774.617 331.492 772.836 328.609 772.836 324.062C772.836 319.516 774.617 316.656 777.359 316.68C779.914 316.656 781.648 319.082 781.906 323.031H784.273V315.391H786.406ZM777.359 318.766C775.836 318.766 774.898 320.711 774.898 324.062C774.898 327.414 775.836 329.359 777.359 329.359C778.906 329.359 779.867 327.414 779.867 324.062C779.867 320.711 778.906 318.766 777.359 318.766ZM800.914 320.336C800.914 324.18 803.07 328 806.281 329.453L804.922 331.234C802.531 330.039 800.738 327.66 799.812 324.789C798.887 327.812 797.047 330.367 794.633 331.633L793.227 329.828C796.484 328.281 798.664 324.227 798.664 320.336V316.75H800.914V320.336ZM810.852 314.992V336.039H808.648V323.781H803.961V321.977H808.648V314.992H810.852ZM836.469 315.016V321.25H839.469V323.078H836.469V329.148H834.242V315.016H836.469ZM819.805 326.805C821.434 326.805 823.32 326.805 825.289 326.734V325.328C822.898 325.082 821.375 323.957 821.398 322.258C821.375 320.336 823.367 319.141 826.391 319.164C829.391 319.141 831.383 320.336 831.383 322.258C831.383 323.945 829.883 325.07 827.516 325.328V326.664C829.391 326.57 831.289 326.418 833.047 326.172L833.234 327.766C828.711 328.562 823.742 328.586 820.039 328.586L819.805 326.805ZM836.469 330.133V335.992H834.242V331.867H822.43V330.133H836.469ZM832.461 316.797V318.461H820.344V316.797H825.289V314.828H827.516V316.797H832.461ZM826.391 320.688C824.586 320.664 823.508 321.25 823.508 322.258C823.508 323.242 824.586 323.875 826.391 323.875C828.172 323.875 829.25 323.242 829.25 322.258C829.25 321.25 828.172 320.664 826.391 320.688ZM858.102 315.016V330.273H855.875V315.016H858.102ZM858.734 333.742V335.547H844.367V328.727H846.617V333.742H858.734ZM846.711 316.422C849.875 316.422 852.289 318.578 852.289 321.625C852.289 324.719 849.875 326.852 846.711 326.852C843.547 326.852 841.109 324.719 841.109 321.625C841.109 318.578 843.547 316.422 846.711 316.422ZM846.711 318.367C844.742 318.367 843.289 319.703 843.289 321.625C843.289 323.594 844.742 324.906 846.711 324.906C848.633 324.906 850.109 323.594 850.109 321.625C850.109 319.703 848.633 318.367 846.711 318.367ZM871.812 318.461V320.266H861.383V318.461H865.508V315.602H867.711V318.461H871.812ZM866.609 321.531C869.281 321.531 871.156 323.523 871.18 326.359C871.156 329.219 869.281 331.234 866.609 331.234C863.984 331.234 862.039 329.219 862.062 326.359C862.039 323.523 863.984 321.531 866.609 321.531ZM866.609 323.383C865.086 323.383 864.031 324.625 864.031 326.359C864.031 328.141 865.086 329.336 866.609 329.336C868.109 329.336 869.211 328.141 869.211 326.359C869.211 324.625 868.109 323.383 866.609 323.383ZM879.406 314.992V335.992H877.297V325.562H874.883V335.008H872.773V315.461H874.883V323.734H877.297V314.992H879.406ZM907.25 331.539V333.391H888.031V331.539H896.492V327.227H890.234V316.422H892.461V320.031H902.773V316.422H904.977V327.227H898.695V331.539H907.25ZM892.461 325.422H902.773V321.836H892.461V325.422ZM915.172 320.734C915.172 324.086 916.578 327.672 919.391 329.383L918.148 331.094C916.18 329.91 914.844 327.812 914.141 325.375C913.355 328.047 911.914 330.32 909.875 331.562L908.492 329.898C911.469 328.117 913.016 324.414 913.016 320.828V316.914H915.172V320.734ZM926.844 314.992V335.992H924.711V314.992H926.844ZM922.484 315.391V334.961H920.375V324.227H917.117V322.375H920.375V315.391H922.484ZM948.734 331.516V333.367H929.516V331.516H934.109V326.031C932.387 325.082 931.344 323.57 931.344 321.695C931.344 318.391 934.578 316.211 939.078 316.211C943.602 316.211 946.836 318.391 946.836 321.695C946.836 323.547 945.828 325.035 944.141 325.984V331.516H948.734ZM939.078 317.992C935.773 317.992 933.5 319.422 933.5 321.695C933.5 323.945 935.773 325.422 939.078 325.422C942.359 325.422 944.68 323.945 944.68 321.695C944.68 319.422 942.359 317.992 939.078 317.992ZM936.312 331.516H941.891V326.828C941.035 327.051 940.086 327.156 939.078 327.156C938.094 327.156 937.156 327.051 936.312 326.852V331.516Z" fill="#374151"/>
<defs>
<linearGradient id="paint0_linear_45011_29612" x1="394" y1="122.275" x2="394" y2="167.177" gradientUnits="userSpaceOnUse">
<stop stop-color="#FF37BB"/>
<stop offset="1" stop-color="#FF68CC"/>
</linearGradient>
<linearGradient id="paint1_linear_45011_29612" x1="354.958" y1="88.6939" x2="363.782" y2="111.063" gradientUnits="userSpaceOnUse">
<stop stop-color="#FF37BB"/>
<stop offset="1" stop-color="#FF68CC"/>
</linearGradient>
<linearGradient id="paint2_linear_45011_29612" x1="409.015" y1="78.7645" x2="398.438" y2="100.356" gradientUnits="userSpaceOnUse">
<stop stop-color="#FF37BB"/>
<stop offset="1" stop-color="#FF68CC"/>
</linearGradient>
<linearGradient id="paint3_linear_45011_29612" x1="394" y1="122.275" x2="394" y2="167.177" gradientUnits="userSpaceOnUse">
<stop stop-color="#FF37BB"/>
<stop offset="1" stop-color="#FF68CC"/>
</linearGradient>
<linearGradient id="paint4_linear_45011_29612" x1="354.958" y1="88.6936" x2="363.782" y2="111.063" gradientUnits="userSpaceOnUse">
<stop stop-color="#FF37BB"/>
<stop offset="1" stop-color="#FF68CC"/>
</linearGradient>
<linearGradient id="paint5_linear_45011_29612" x1="409.015" y1="78.7645" x2="398.438" y2="100.356" gradientUnits="userSpaceOnUse">
<stop stop-color="#FF37BB"/>
<stop offset="1" stop-color="#FF68CC"/>
</linearGradient>
<clipPath id="clip0_45011_29612">
<rect width="588" height="444" fill="white" transform="translate(31)"/>
</clipPath>
</defs>
</svg>
